<svg xmlns="http://www.w3.org/2000/svg" width="28.977" height="28.977" viewBox="0 0 28.977 28.977">
  <path id="Icon_awesome-dribbble" data-name="Icon awesome-dribbble" d="M15.051.562A14.489,14.489,0,1,0,29.54,15.051,14.505,14.505,0,0,0,15.051.562Zm9.579,6.681a12.317,12.317,0,0,1,2.795,7.709,28.921,28.921,0,0,0-8.617-.4c-.336-.82-.653-1.542-1.088-2.431A16.485,16.485,0,0,0,24.631,7.244ZM23.255,5.813a13.973,13.973,0,0,1-6.486,4.47,66.058,66.058,0,0,0-4.618-7.245,12.344,12.344,0,0,1,11.1,2.774ZM9.79,3.87a78.964,78.964,0,0,1,4.588,7.157A46.161,46.161,0,0,1,2.937,12.535,12.421,12.421,0,0,1,9.79,3.87ZM2.676,15.07c0-.127,0-.252.006-.378A45.651,45.651,0,0,0,15.4,12.931c.354.693.693,1.4,1,2.1A19.169,19.169,0,0,0,5.857,23.345,12.326,12.326,0,0,1,2.676,15.07Zm4.779,9.763c1.293-2.643,4.8-6.054,9.79-7.756a51.442,51.442,0,0,1,2.64,9.385,12.35,12.35,0,0,1-12.43-1.629Zm14.511.5a53.413,53.413,0,0,0-2.4-8.824,18.164,18.164,0,0,1,7.709.529,12.4,12.4,0,0,1-5.3,8.295Z" transform="translate(-0.563 -0.563)" fill="#fff"/>
</svg>
