<svg xmlns="http://www.w3.org/2000/svg" width="26.497" height="26.497" viewBox="0 0 26.497 26.497">
  <path id="Icon_awesome-linkedin" data-name="Icon awesome-linkedin" d="M24.6,2.25H1.887A1.9,1.9,0,0,0,0,4.16V26.837a1.9,1.9,0,0,0,1.887,1.91H24.6a1.906,1.906,0,0,0,1.893-1.91V4.16A1.906,1.906,0,0,0,24.6,2.25ZM8.008,24.962H4.081V12.317H8.014V24.962ZM6.045,10.59A2.277,2.277,0,1,1,8.322,8.312,2.278,2.278,0,0,1,6.045,10.59ZM22.73,24.962H18.8V18.811c0-1.467-.03-3.354-2.041-3.354-2.046,0-2.36,1.6-2.36,3.247v6.258H10.475V12.317h3.768v1.727H14.3A4.136,4.136,0,0,1,18.016,12c3.975,0,4.714,2.62,4.714,6.027Z" transform="translate(0 -2.25)" fill="#fff"/>
</svg>
