<svg xmlns="http://www.w3.org/2000/svg" width="29.051" height="29.051" viewBox="0 0 29.051 29.051">
  <path id="Icon_awesome-whatsapp" data-name="Icon awesome-whatsapp" d="M24.7,6.472A14.4,14.4,0,0,0,2.043,23.844L0,31.3l7.632-2a14.352,14.352,0,0,0,6.88,1.751h.006a14.534,14.534,0,0,0,14.532-14.4A14.453,14.453,0,0,0,24.7,6.472ZM14.519,28.623a11.944,11.944,0,0,1-6.1-1.667L7.989,26.7,3.463,27.884l1.206-4.416-.285-.454A11.989,11.989,0,1,1,26.62,16.652a12.1,12.1,0,0,1-12.1,11.971Zm6.562-8.962c-.357-.182-2.127-1.051-2.458-1.167s-.571-.182-.811.182-.927,1.167-1.141,1.414-.422.272-.778.091A9.791,9.791,0,0,1,11,15.9c-.37-.635.37-.59,1.057-1.965a.667.667,0,0,0-.032-.629c-.091-.182-.811-1.952-1.109-2.672-.292-.7-.59-.6-.811-.616s-.447-.013-.687-.013a1.333,1.333,0,0,0-.96.447,4.042,4.042,0,0,0-1.258,3,7.047,7.047,0,0,0,1.466,3.722,16.074,16.074,0,0,0,6.147,5.434c2.283.986,3.177,1.07,4.319.9A3.684,3.684,0,0,0,21.555,21.8a3.008,3.008,0,0,0,.208-1.712C21.678,19.927,21.438,19.836,21.082,19.661Z" transform="translate(0 -2.25)" fill="#fff"/>
</svg>
